<svg version="1.1" class="highcharts-root" style="font-family: inherit; font-size: 1rem;" xmlns="http://www.w3.org/2000/svg" width="600" height="400" viewBox="0 0 600 400" aria-hidden="false" aria-label="Interactive chart"><desc aria-hidden="true">Created with Highcharts 12.5.0</desc><defs aria-hidden="true"><filter id="highcharts-drop-shadow-0"><feDropShadow dx="1" dy="1" flood-color="#000000" flood-opacity="0.75" stdDeviation="2.5"></feDropShadow></filter></defs><rect fill="transparent" class="highcharts-background" filter="none" x="0" y="0" width="600" height="400" rx="0" ry="0" aria-hidden="true"></rect><rect fill="none" class="highcharts-plot-background" x="10" y="42" width="580" height="343" filter="none" aria-hidden="true"></rect><g class="highcharts-pane-group" data-z-index="0" aria-hidden="true"></g><rect fill="none" class="highcharts-plot-border" data-z-index="1" stroke="#cccccc" stroke-width="0" x="10" y="42" width="580" height="343" aria-hidden="true"></rect><g class="highcharts-series-group" data-z-index="3" filter="none" aria-hidden="false"><g class="highcharts-series highcharts-series-0 highcharts-pie-series highcharts-tracker" data-z-index="0.1" opacity="1" transform="translate(10,42) scale(1 1)" filter="none" clip-path="none" aria-hidden="false"><path fill="#2caffe" d="M 289.96772358025225 13.028396997339826 A 3 3 0 0 1 293.0238949410823 10.028311895288283 A 161.5 161.5 0 1 1 181.66722015073094 291.2758690643896 A 3 3 0 0 1 181.49314269239485 286.99680479228425 L 290 171.5 A 0 0 0 0 1 290 171.5 A 0 0 0 1 0 290 171.5 A 0 0 0 0 1 290 171.5 Z" transform="translate(0,0)" stroke="#ffffff" stroke-width="1" opacity="1" stroke-linejoin="round" class="highcharts-point highcharts-color-0" tabindex="-1" role="img" aria-label="STDIO, 62. Share." style="outline: none;"></path><path fill="#8085e9" d="M 181.49314269239485 286.99680479228425 A 3 3 0 0 1 177.21155013093176 287.0898593135777 A 161.5 161.5 0 0 1 286.8804088199683 10.030132374893327 A 3 3 0 0 1 289.93835765517747 13.028405699250555 L 290 171.5 A 0 0 0 0 1 290 171.5 A 0 0 0 0 0 290 171.5 A 0 0 0 0 1 290 171.5 Z" transform="translate(0,0)" stroke="#ffffff" stroke-width="1" opacity="1" stroke-linejoin="round" class="highcharts-point highcharts-color-1" tabindex="-1" role="img" aria-label="HTTP, 38. Share." style="outline: none;"></path></g><g class="highcharts-markers highcharts-series-0 highcharts-pie-series" data-z-index="0.1" opacity="1" transform="translate(10,42) scale(1 1)" clip-path="none" aria-hidden="true"></g></g><text x="300" class="highcharts-title" data-z-index="4" text-align="center" y="22" text-anchor="middle" transform-origin="66.82421875 19" transform="translate(0,0) scale(1 1)" style="font-size: 16px; font-weight: bold; fill: rgb(229, 231, 235);" aria-hidden="true">Transport Share</text><text x="300" class="highcharts-subtitle" data-z-index="4" text-align="center" y="41" text-anchor="middle" transform-origin="10 15" transform="translate(0,0) scale(1 1)" style="font-size: 0.8em; fill: rgb(156, 163, 175);" aria-hidden="true"></text><text x="10" text-anchor="start" class="highcharts-caption" data-z-index="4" style="font-size: 0.8em; fill: rgb(102, 102, 102);" text-align="left" y="397" transform-origin="10 15" transform="translate(0,0) scale(1 1)" aria-hidden="true"></text><g class="highcharts-data-labels highcharts-series-0 highcharts-pie-series highcharts-tracker" data-z-index="6" opacity="1" transform="translate(10,42) scale(1 1)" aria-hidden="true"><path fill="none" class="highcharts-data-label-connector highcharts-color-0" stroke-width="1" stroke="#2caffe" d="M 473.05219704760015 241.99585183911586 L 468.05219704760015 241.99585183911586 L 445.73756138628215 233.16086257468356 L 440.1589024709526 230.9521152585755"></path><path fill="none" class="highcharts-data-label-connector highcharts-color-1" stroke-width="1" stroke="#8085e9" d="M 106.94780295239985 101.00414816088418 L 111.94780295239991 101.00414816088418 L 134.2624386137179 109.83913742531645 L 139.8410975290474 112.04788474142453"></path><g class="highcharts-label highcharts-data-label highcharts-data-label-color-0" data-z-index="1" filter="none" transform="translate(478,231)"><text x="5" data-z-index="1" y="16" style="font-size: 0.7em; font-weight: bold; fill: rgb(229, 231, 235);">STDIO</text></g><g class="highcharts-label highcharts-data-label highcharts-data-label-color-1" data-z-index="1" filter="none" transform="translate(60,90)"><text x="36.65232849121094" data-z-index="1" y="16" text-anchor="end" style="font-size: 0.7em; font-weight: bold; fill: rgb(229, 231, 235);">HTTP</text></g></g><g class="highcharts-legend highcharts-no-tooltip" data-z-index="7" visibility="hidden" aria-hidden="true"><rect fill="none" class="highcharts-legend-box" rx="0" ry="0" stroke="#999999" stroke-width="0" filter="none" x="0" y="0" width="8" height="8"></rect><g data-z-index="1"><g></g></g></g></svg>